<svg width="26" height="28" viewBox="0 0 26 28" fill="none" xmlns="http://www.w3.org/2000/svg">
<path d="M3.26951 2.97015C3.31501 2.9684 3.36051 2.96665 3.40739 2.96484C3.86818 3.02096 4.29831 3.29248 4.71092 3.49457C4.77801 3.52728 4.84511 3.55997 4.91222 3.59266C5.09734 3.68287 5.28234 3.77332 5.46732 3.86381C5.59009 3.92386 5.71287 3.98387 5.83567 4.04386C6.18903 4.21651 6.54238 4.38919 6.89565 4.56203C7.47087 4.84344 8.04631 5.12438 8.62205 5.40472C8.77183 5.47766 8.92161 5.5506 9.07139 5.62354C9.10845 5.64158 9.1455 5.65962 9.18368 5.67822C9.61571 5.88861 10.0476 6.0993 10.4795 6.31C10.5193 6.32943 10.5591 6.34885 10.6001 6.36887C10.8016 6.46715 11.0031 6.56544 11.2045 6.66373C11.5654 6.8398 11.9263 7.01584 12.2872 7.19188C12.4873 7.28952 12.6875 7.38716 12.8877 7.4848C12.9678 7.52386 13.0478 7.56293 13.1279 7.60199C19.374 10.6489 19.374 10.6489 19.4941 10.7074C19.5742 10.7465 19.6544 10.7856 19.7346 10.8247C19.9337 10.9219 20.1328 11.019 20.3319 11.1162C20.7051 11.2983 21.0784 11.4803 21.452 11.6618C21.6274 11.7469 21.8027 11.8322 21.9779 11.9174C22.061 11.9578 22.1442 11.9982 22.2273 12.0385C23.7731 12.7877 23.7731 12.7877 24.0556 13.4848C24.1822 13.8751 24.1425 14.3513 23.9806 14.7235C23.6553 15.3222 23.1046 15.5415 22.5142 15.8272C22.3646 15.8999 22.2154 15.9735 22.0661 16.047C21.524 16.3139 20.9808 16.5784 20.4374 16.8426C20.235 16.941 20.0326 17.0397 19.8303 17.1383C19.5304 17.2845 19.2305 17.4306 18.9305 17.5767C18.4611 17.8053 17.9917 18.0342 17.5224 18.2631C17.4826 18.2825 17.4428 18.302 17.4018 18.322C17.2003 18.4203 16.9988 18.5186 16.7974 18.6169C16.4365 18.7929 16.0756 18.969 15.7147 19.145C15.5146 19.2426 15.3144 19.3403 15.1142 19.4379C15.0342 19.477 14.9541 19.5161 14.874 19.5551C14.8344 19.5745 14.7947 19.5938 14.7539 19.6137C8.62791 22.602 8.62791 22.602 8.5078 22.6606C8.42769 22.6997 8.34758 22.7387 8.26747 22.7778C8.06779 22.8752 7.8681 22.9726 7.66842 23.07C7.2598 23.2693 6.85123 23.4687 6.44273 23.6682C6.00572 23.8816 5.5686 24.0948 5.13134 24.3077C5.02775 24.3582 4.92419 24.4086 4.82062 24.4591C4.64159 24.5464 4.4624 24.6333 4.28318 24.7202C4.23177 24.7452 4.18036 24.7703 4.12738 24.7961C4.08085 24.8186 4.03432 24.8411 3.98637 24.8643C3.92666 24.8932 3.92666 24.8932 3.86574 24.9228C3.55809 25.0562 3.19469 25.0779 2.87602 24.9719C2.52126 24.8023 2.28422 24.5835 2.11948 24.2235C1.94632 23.7029 2.10895 23.124 2.24116 22.6116C2.25947 22.5381 2.27771 22.4645 2.29589 22.391C2.34493 22.1934 2.39498 21.9962 2.44526 21.7989C2.49793 21.5916 2.5497 21.3841 2.60159 21.1766C2.68871 20.8288 2.77646 20.4811 2.86463 20.1335C2.96645 19.7321 3.06746 19.3305 3.16801 18.9288C3.27538 18.4998 3.38326 18.071 3.49132 17.6422C3.52233 17.519 3.55325 17.3958 3.58416 17.2726C3.63274 17.0791 3.68167 16.8857 3.73086 16.6924C3.74883 16.6216 3.76669 16.5507 3.78443 16.4798C3.80871 16.3829 3.83339 16.2861 3.85818 16.1892C3.87187 16.1351 3.88557 16.081 3.89968 16.0252C3.95881 15.8351 4.02799 15.6602 4.16151 15.5105C4.34029 15.4203 4.52377 15.4078 4.72126 15.3859C4.7682 15.3802 4.81514 15.3746 4.86349 15.3688C5.02643 15.3494 5.18945 15.3311 5.35252 15.3129C5.41247 15.3061 5.47242 15.2994 5.53419 15.2924C5.95089 15.2453 6.36776 15.1999 6.78468 15.1548C7.01998 15.1293 7.25526 15.1036 7.49052 15.0778C7.57171 15.0689 7.65289 15.0601 7.73408 15.0512C7.77466 15.0467 7.81523 15.0423 7.85703 15.0377C8.40289 14.9779 8.94877 14.9184 9.49471 14.8594C9.86582 14.8193 10.2369 14.7788 10.6079 14.7379C10.8034 14.7164 10.9989 14.6951 11.1945 14.6742C11.3777 14.6546 11.5608 14.6346 11.7439 14.6142C11.8109 14.6068 11.8779 14.5996 11.9449 14.5926C12.4818 14.5488 12.4818 14.5488 12.9433 14.2963C13.0173 14.1354 13.0235 13.9847 12.9931 13.8129C12.8718 13.5983 12.7556 13.5497 12.5244 13.4848C12.4128 13.4671 12.3008 13.4526 12.1885 13.4403C12.1557 13.4367 12.123 13.433 12.0893 13.4293C11.9802 13.4172 11.871 13.4055 11.7619 13.3939C11.6834 13.3853 11.6049 13.3766 11.5264 13.368C11.3577 13.3494 11.189 13.331 11.0202 13.3128C10.7533 13.284 10.4864 13.2547 10.2195 13.2253C9.70103 13.1683 9.18254 13.1117 8.66404 13.0552C8.00422 12.9834 7.34441 12.9114 6.68467 12.8388C6.41948 12.8096 6.15426 12.7807 5.88901 12.7521C5.72386 12.7342 5.55873 12.716 5.39361 12.6978C5.31719 12.6895 5.24076 12.6812 5.16431 12.673C5.05972 12.6618 4.95518 12.6503 4.85064 12.6386C4.76298 12.6291 4.76298 12.6291 4.67354 12.6194C4.23359 12.5521 4.23359 12.5521 4.07149 12.3939C3.99033 12.2615 3.94885 12.1528 3.91151 12.0024C3.89136 11.9231 3.89136 11.9231 3.87079 11.8422C3.85673 11.7843 3.84266 11.7264 3.82817 11.6667C3.81251 11.6042 3.7968 11.5418 3.78104 11.4793C3.73799 11.308 3.6957 11.1365 3.65356 10.965C3.60868 10.7827 3.56323 10.6006 3.51783 10.4185C3.45915 10.183 3.40054 9.94748 3.34221 9.71189C3.19484 9.11712 3.04391 8.5233 2.89177 7.92973C2.8168 7.63682 2.74233 7.34378 2.66789 7.05073C2.60696 6.81104 2.54577 6.57142 2.48394 6.33196C2.4252 6.10438 2.36728 5.8766 2.30993 5.64866C2.28867 5.56473 2.26712 5.48087 2.24525 5.39709C1.93131 4.19264 1.93131 4.19264 2.17381 3.65863C2.41856 3.24454 2.78081 2.98226 3.26951 2.97015Z" fill="white"/>
</svg>
