<svg width="24" height="24" viewBox="0 0 24 24" fill="none" xmlns="http://www.w3.org/2000/svg">
<path d="M13.8281 3.141C13.8691 3.14982 13.9102 3.15863 13.9524 3.16771C14.9136 3.37796 16.2998 3.72468 16.9219 4.54725C17.0554 4.82068 17.0687 5.15901 16.9851 5.45088C16.8567 5.73783 16.6466 5.93027 16.3653 6.06483C15.8409 6.16971 15.4842 5.9881 15.0235 5.74843C14.2568 5.35562 13.3322 5.09174 12.4688 5.06288C12.422 5.06107 12.422 5.06107 12.3743 5.05922C10.5682 4.9976 8.81702 5.5479 7.45314 6.75038C7.40746 6.78929 7.36178 6.82821 7.31471 6.8683C5.95988 8.04352 5.19567 9.81026 5.06252 11.5785C4.94931 13.5109 5.64169 15.2942 6.90301 16.7335C8.0186 17.9735 9.73295 18.8181 11.3998 18.9335C11.4432 18.9349 11.4866 18.9364 11.5313 18.9379C11.5624 18.9391 11.5936 18.9403 11.6257 18.9415C12.9814 18.9878 14.3548 18.7047 15.5252 17.9978C15.7423 17.8836 15.9791 17.8843 16.2188 17.9066C16.528 18.0062 16.7739 18.1675 16.9395 18.4515C17.0767 18.7578 17.0626 19.087 16.9453 19.3978C16.7078 19.8567 16.1495 20.0437 15.7031 20.2504C15.6719 20.265 15.6406 20.2795 15.6084 20.2946C15.0354 20.5577 14.4425 20.7223 13.8281 20.8598C13.7733 20.8725 13.7733 20.8725 13.7173 20.8854C12.613 21.1306 11.2725 21.1118 10.1719 20.8598C10.1309 20.8509 10.0899 20.8421 10.0476 20.833C8.69179 20.5365 7.45388 19.9481 6.37502 19.0785C6.34752 19.0564 6.32003 19.0344 6.2917 19.0116C5.69886 18.532 5.18996 18.0019 4.73439 17.391C4.70509 17.3521 4.67578 17.3132 4.64559 17.2731C3.66486 15.9226 3.00565 14.2104 2.98885 12.5307C2.98816 12.4736 2.98816 12.4736 2.98746 12.4153C2.9794 11.5736 2.98692 10.7605 3.18752 9.93788C3.20221 9.87561 3.20221 9.87561 3.2172 9.81209C3.70812 7.78518 4.93801 5.97346 6.60939 4.73475C6.65809 4.69856 6.7068 4.66237 6.75698 4.62507C7.7887 3.88571 8.93484 3.41115 10.1719 3.141C10.2081 3.13267 10.2444 3.12433 10.2817 3.11574C11.3864 2.87031 12.7271 2.88883 13.8281 3.141Z" fill="white"/>
<path d="M19.6406 8.15634C19.8439 8.32098 20.0252 8.50463 20.2081 8.69137C20.2612 8.74468 20.3144 8.79794 20.3676 8.85115C20.4787 8.96239 20.5892 9.07408 20.6994 9.18615C20.8395 9.3287 20.9806 9.47031 21.122 9.61162C21.2318 9.72146 21.3412 9.83165 21.4506 9.94197C21.5024 9.99426 21.5543 10.0465 21.6063 10.0986C22.1623 10.6569 22.6071 11.1809 22.6172 12.0001C22.6055 12.8763 22.0787 13.4281 21.4882 14.0199C21.4362 14.0723 21.3843 14.1247 21.3323 14.1772C21.2242 14.2861 21.1159 14.3947 21.0073 14.5032C20.8691 14.6414 20.7318 14.7806 20.5948 14.9201C20.4881 15.0283 20.3808 15.1359 20.2734 15.2433C20.2225 15.2943 20.1719 15.3455 20.1215 15.397C19.7913 15.7337 19.4726 16.0215 18.9814 16.0548C18.6219 16.0091 18.376 15.883 18.1496 15.5992C18.0157 15.3991 17.984 15.2558 17.9795 15.0118C17.9776 14.9569 17.9757 14.9021 17.9738 14.8455C18.0273 14.4911 18.2742 14.2363 18.5239 13.9937C18.5639 13.954 18.5639 13.954 18.6048 13.9134C18.689 13.83 18.7737 13.7471 18.8584 13.6642C18.9161 13.6072 18.9737 13.5502 19.0313 13.4931C19.1716 13.3544 19.3122 13.2162 19.4531 13.0782C19.4141 13.0781 19.3751 13.078 19.3348 13.0779C18.3845 13.0751 17.4342 13.0716 16.4839 13.0672C16.0243 13.0651 15.5648 13.0632 15.1052 13.062C14.7046 13.0609 14.304 13.0593 13.9034 13.0572C13.6913 13.0561 13.4792 13.0552 13.2672 13.0549C13.0674 13.0546 12.8676 13.0537 12.6679 13.0522C12.5947 13.0518 12.5216 13.0516 12.4484 13.0517C12.0223 13.0521 11.6777 13.0436 11.3086 12.8087C11.0786 12.5787 10.9784 12.3326 10.957 12.0118C10.9617 11.6998 11.0757 11.4244 11.2969 11.2032C11.5734 11.012 11.7937 10.9632 12.1251 10.9614C12.1565 10.9612 12.1878 10.961 12.2201 10.9607C12.3252 10.96 12.4302 10.9596 12.5352 10.9592C12.6105 10.9588 12.6858 10.9583 12.7611 10.9578C12.9655 10.9565 13.1699 10.9556 13.3744 10.9546C13.588 10.9536 13.8017 10.9523 14.0153 10.9511C14.4199 10.9487 14.8244 10.9466 15.229 10.9446C15.6896 10.9423 16.1502 10.9397 16.6108 10.9371C17.5582 10.9318 18.5057 10.9268 19.4531 10.922C19.3946 10.8645 19.3946 10.8645 19.3349 10.8059C19.1896 10.6632 19.0448 10.52 18.9001 10.3767C18.8375 10.3148 18.7748 10.253 18.712 10.1914C18.6215 10.1026 18.5314 10.0134 18.4415 9.92404C18.4135 9.89678 18.3855 9.86952 18.3567 9.84144C18.1049 9.5898 17.9798 9.37058 17.9766 9.00595C17.9846 8.65862 18.0666 8.47194 18.3027 8.22574C18.7039 7.8584 19.1958 7.90763 19.6406 8.15634Z" fill="white"/>
</svg>
