<svg width="181" height="43" viewBox="0 0 181 43" fill="none" xmlns="http://www.w3.org/2000/svg">
<path d="M13.6554 28.9844C5.81972 28.9844 0 22.9364 0 15.2909V15.2148C0 7.64541 5.70561 1.44531 13.8836 1.44531C17.8776 1.44531 20.5782 2.51036 22.7844 4.14597C23.393 4.60242 23.9255 5.43924 23.9255 6.46625C23.9255 8.06382 22.6322 9.31905 21.0347 9.31905C20.2359 9.31905 19.7034 9.01475 19.285 8.74849C17.6493 7.53129 15.9377 6.84662 13.8456 6.84662C9.3572 6.84662 6.12402 10.5743 6.12402 15.1388V15.2148C6.12402 19.7793 9.28112 23.5831 13.8456 23.5831C16.318 23.5831 17.9536 22.8223 19.6273 21.491C20.0837 21.1106 20.6923 20.8444 21.377 20.8444C22.8605 20.8444 24.1157 22.0616 24.1157 23.545C24.1157 24.4579 23.6593 25.1806 23.1267 25.6371C20.7304 27.7291 17.9156 28.9844 13.6554 28.9844Z" fill="white"/>
<path d="M31.2394 26.0175C31.2394 25.5991 31.3915 25.1806 31.5817 24.7622L40.8629 3.80363C41.5095 2.35821 42.6886 1.48335 44.2862 1.48335H44.6286C46.2261 1.48335 47.3672 2.35821 48.0139 3.80363L57.295 24.7622C57.4852 25.1806 57.5993 25.561 57.5993 25.9414C57.5993 27.5009 56.3821 28.7562 54.8226 28.7562C53.4532 28.7562 52.5403 27.9574 52.0078 26.7402L50.2201 22.5561H38.5045L36.6407 26.9304C36.1462 28.0715 35.1572 28.7562 33.9401 28.7562C32.4186 28.7562 31.2394 27.539 31.2394 26.0175ZM38.5045 22.5561H50.2201L44.3623 8.59634L38.5045 22.5561Z" fill="white"/>
<path d="M65.9913 25.5991V4.60242C65.9913 2.96681 67.2846 1.67354 68.9202 1.67354C70.5558 1.67354 71.8491 2.96681 71.8491 4.60242V23.2027H82.6897C84.1732 23.2027 85.3523 24.3819 85.3523 25.8653C85.3523 27.3488 84.1732 28.5279 82.6897 28.5279H68.9202C67.2846 28.5279 65.9913 27.2347 65.9913 25.5991Z" fill="white"/>
<path d="M93.6118 25.8273V4.60242C93.6118 2.96681 94.9051 1.67354 96.5407 1.67354C98.1763 1.67354 99.4696 2.96681 99.4696 4.60242V25.8273C99.4696 27.4629 98.1763 28.7562 96.5407 28.7562C94.9051 28.7562 93.6118 27.4629 93.6118 25.8273Z" fill="white"/>
<path d="M135.109 14.9297C135.109 22.6499 128.85 28.9084 121.13 28.9084C113.41 28.9084 107.151 22.6499 107.151 14.9297C107.151 7.20943 113.41 0.950935 121.13 0.950935C128.85 0.950935 135.109 7.20943 135.109 14.9297ZM112.743 14.9297C112.743 19.5618 116.498 23.3169 121.13 23.3169C125.762 23.3169 129.517 19.5618 129.517 14.9297C129.517 10.2975 125.762 6.54243 121.13 6.54243C116.498 6.54243 112.743 10.2975 112.743 14.9297Z" fill="white"/>
<path d="M115.377 4.96493C114.694 3.78238 115.095 2.24681 116.38 1.7828C118.356 1.06853 120.48 0.805598 122.591 1.02753C125.527 1.3361 128.29 2.56617 130.483 4.54146C132.677 6.51675 134.189 9.13583 134.803 12.0233C135.245 14.1001 135.205 16.239 134.701 18.2797C134.374 19.6054 132.889 20.1651 131.641 19.6097L131.051 19.3467C129.803 18.7913 129.284 17.3228 129.453 15.9678C129.568 15.046 129.529 14.1058 129.334 13.1859C128.966 11.4534 128.058 9.88192 126.742 8.69675C125.426 7.51158 123.768 6.77353 122.007 6.58839C121.071 6.49009 120.132 6.55034 119.227 6.76104C117.898 7.07075 116.383 6.70748 115.7 5.52493L115.377 4.96493Z" fill="#FDDF65"/>
<path d="M116.056 0.888582C118.168 0.125738 120.435 -0.155238 122.69 0.081773C125.826 0.411332 128.777 1.72517 131.12 3.83481C133.463 5.94445 135.078 8.74171 135.733 11.8256C136.205 14.0436 136.163 16.3281 135.625 18.5076C135.127 20.522 132.93 21.2247 131.255 20.4786L130.664 20.2154C128.897 19.4288 128.31 17.4502 128.509 15.8502C128.611 15.0329 128.577 14.1993 128.404 13.3837C128.077 11.8477 127.273 10.4543 126.106 9.40353C124.939 8.35273 123.469 7.69832 121.907 7.53417C121.078 7.44702 120.245 7.50041 119.443 7.68721C117.873 8.05292 115.844 7.67527 114.877 6.00041L114.553 5.44044C113.636 3.8519 114.105 1.59364 116.056 0.888582ZM122.591 1.02753C120.48 0.805598 118.356 1.06853 116.38 1.7828L116.32 1.80534C115.083 2.29473 114.705 3.80087 115.377 4.96493L115.7 5.52493C116.361 6.67052 117.804 7.04723 119.102 6.78809L119.227 6.76104C120.132 6.55034 121.071 6.49009 122.007 6.58839C123.768 6.77353 125.426 7.51158 126.742 8.69675C128.058 9.88192 128.966 11.4534 129.334 13.1859C129.529 14.1058 129.568 15.046 129.453 15.9678C129.284 17.3228 129.803 18.7913 131.051 19.3467L131.641 19.6097C132.869 20.1564 134.328 19.6227 134.685 18.3414L134.701 18.2797C135.189 16.3028 135.242 14.2337 134.843 12.2183L134.803 12.0233C134.209 9.22606 132.771 6.68072 130.687 4.72854L130.483 4.54146C128.29 2.56617 125.527 1.3361 122.591 1.02753Z" fill="#222531"/>
<path d="M4.92143 42.9772C3.78018 42.9772 2.82913 42.6138 1.95641 41.9097C1.85571 41.8416 1.78857 41.7166 1.78857 41.569C1.78857 41.3192 1.97878 41.1261 2.21375 41.1261C2.32564 41.1261 2.42634 41.1715 2.48228 41.2283C3.22074 41.8643 3.9592 42.1709 4.955 42.1709C6.00675 42.1709 6.70045 41.6031 6.70045 40.8195V40.7968C6.70045 40.0586 6.30884 39.6384 4.66409 39.2863C2.8627 38.8889 2.03473 38.2983 2.03473 36.9923V36.9696C2.03473 35.7204 3.12004 34.8005 4.60815 34.8005C5.63752 34.8005 6.38717 35.0617 7.10325 35.5841C7.19276 35.6523 7.29346 35.7772 7.29346 35.9475C7.29346 36.186 7.10325 36.3791 6.86828 36.3791C6.76758 36.3791 6.68926 36.3564 6.61094 36.2996C5.9508 35.8112 5.31304 35.6068 4.58577 35.6068C3.56759 35.6068 2.91864 36.1747 2.91864 36.8901V36.9128C2.91864 37.6624 3.32144 38.0826 5.04451 38.4573C6.78996 38.8434 7.59555 39.4908 7.59555 40.7059V40.7286C7.59555 42.0914 6.47668 42.9772 4.92143 42.9772Z" fill="#C5C9D7"/>
<path d="M9.13567 42.4775V37.3785C9.13567 37.14 9.32588 36.9355 9.56085 36.9355C9.807 36.9355 9.99721 37.1286 9.99721 37.3785V37.9803C10.3776 37.4012 10.8923 36.8674 11.8657 36.8674C12.8056 36.8674 13.4098 37.3785 13.7231 38.0371C14.1371 37.3898 14.7524 36.8674 15.7594 36.8674C17.0909 36.8674 17.9077 37.7759 17.9077 39.2296V42.4775C17.9077 42.7274 17.7175 42.9204 17.4825 42.9204C17.2364 42.9204 17.0461 42.7274 17.0461 42.4775V39.434C17.0461 38.2983 16.4867 37.6624 15.5468 37.6624C14.6741 37.6624 13.958 38.321 13.958 39.4794V42.4775C13.958 42.7274 13.7678 42.9204 13.5217 42.9204C13.2867 42.9204 13.0965 42.7274 13.0965 42.4775V39.4113C13.0965 38.3097 12.5259 37.6624 11.6084 37.6624C10.6909 37.6624 9.99721 38.4346 9.99721 39.5135V42.4775C9.99721 42.7274 9.81819 42.9204 9.57204 42.9204C9.32588 42.9204 9.13567 42.7274 9.13567 42.4775Z" fill="#C5C9D7"/>
<path d="M21.3893 42.9886C20.3152 42.9886 19.2299 42.364 19.2299 41.1602V41.1375C19.2299 39.8996 20.2369 39.2409 21.7026 39.2409C22.4411 39.2409 22.9669 39.3431 23.4816 39.4908V39.2863C23.4816 38.2302 22.8439 37.6851 21.7585 37.6851C21.1767 37.6851 20.6844 37.8214 20.2593 38.0144C20.2033 38.0371 20.1474 38.0485 20.1026 38.0485C19.9012 38.0485 19.7222 37.8781 19.7222 37.6737C19.7222 37.492 19.8453 37.3557 19.9572 37.3103C20.5278 37.0605 21.1096 36.9128 21.8481 36.9128C22.6648 36.9128 23.2914 37.1286 23.7166 37.5602C24.1082 37.9576 24.3096 38.5255 24.3096 39.275V42.4889C24.3096 42.7387 24.1306 42.9204 23.8956 42.9204C23.6495 42.9204 23.4816 42.7387 23.4816 42.5116V41.9778C23.0788 42.5116 22.4075 42.9886 21.3893 42.9886ZM21.5572 42.2958C22.6201 42.2958 23.4928 41.6372 23.4928 40.7059V40.1381C23.0676 40.0132 22.497 39.8882 21.7921 39.8882C20.7068 39.8882 20.1026 40.3652 20.1026 41.1034V41.1261C20.1026 41.8643 20.7739 42.2958 21.5572 42.2958Z" fill="#C5C9D7"/>
<path d="M26.0338 42.4775V37.3785C26.0338 37.14 26.224 36.9355 26.459 36.9355C26.7051 36.9355 26.8953 37.1286 26.8953 37.3785V38.48C27.3205 37.5034 28.1597 36.9128 28.8869 36.9128C29.1443 36.9128 29.3121 37.1059 29.3121 37.3557C29.3121 37.5942 29.1555 37.7646 28.9317 37.7986C27.8128 37.9349 26.8953 38.7867 26.8953 40.4788V42.4775C26.8953 42.716 26.7163 42.9204 26.4702 42.9204C26.224 42.9204 26.0338 42.7274 26.0338 42.4775Z" fill="#C5C9D7"/>
<path d="M32.3921 42.9659C31.4634 42.9659 30.7585 42.5003 30.7585 41.3078V37.7646H30.2886C30.0872 37.7646 29.9082 37.5829 29.9082 37.3785C29.9082 37.1627 30.0872 36.9923 30.2886 36.9923H30.7585V35.6068C30.7585 35.3683 30.9376 35.1639 31.1837 35.1639C31.4187 35.1639 31.6201 35.3683 31.6201 35.6068V36.9923H33.1194C33.332 36.9923 33.511 37.174 33.511 37.3785C33.511 37.5942 33.332 37.7646 33.1194 37.7646H31.6201V41.1942C31.6201 41.9097 32.0117 42.1709 32.5935 42.1709C32.8956 42.1709 33.0522 42.0914 33.1194 42.0914C33.3208 42.0914 33.4886 42.2618 33.4886 42.4662C33.4886 42.6252 33.3879 42.7501 33.2424 42.8069C32.9963 42.9091 32.7278 42.9659 32.3921 42.9659Z" fill="#C5C9D7"/>
<path d="M41.8366 42.9999C39.5764 42.9999 37.9093 41.1942 37.9093 38.9116V38.8889C37.9093 36.6403 39.5652 34.7778 41.8701 34.7778C43.1345 34.7778 43.9401 35.198 44.6673 35.8112C44.7568 35.8907 44.8464 36.0157 44.8464 36.1747C44.8464 36.4131 44.6338 36.6176 44.3988 36.6176C44.2757 36.6176 44.175 36.5608 44.1079 36.5154C43.5037 35.9702 42.8212 35.6068 41.8589 35.6068C40.1247 35.6068 38.8268 37.0378 38.8268 38.8662V38.8889C38.8268 40.7286 40.1359 42.1709 41.8589 42.1709C42.8324 42.1709 43.5149 41.8302 44.1862 41.2056C44.2533 41.1375 44.354 41.0807 44.4659 41.0807C44.6897 41.0807 44.8911 41.2851 44.8911 41.5122C44.8911 41.6485 44.824 41.7621 44.7457 41.8302C43.9736 42.5457 43.1233 42.9999 41.8366 42.9999Z" fill="#C5C9D7"/>
<path d="M47.9824 42.9886C46.9082 42.9886 45.8229 42.364 45.8229 41.1602V41.1375C45.8229 39.8996 46.8299 39.2409 48.2956 39.2409C49.0341 39.2409 49.56 39.3431 50.0747 39.4908V39.2863C50.0747 38.2302 49.4369 37.6851 48.3516 37.6851C47.7698 37.6851 47.2775 37.8214 46.8523 38.0144C46.7963 38.0371 46.7404 38.0485 46.6956 38.0485C46.4943 38.0485 46.3152 37.8781 46.3152 37.6737C46.3152 37.492 46.4383 37.3557 46.5502 37.3103C47.1208 37.0605 47.7026 36.9128 48.4411 36.9128C49.2579 36.9128 49.8845 37.1286 50.3096 37.5602C50.7012 37.9576 50.9026 38.5255 50.9026 39.275V42.4889C50.9026 42.7387 50.7236 42.9204 50.4886 42.9204C50.2425 42.9204 50.0747 42.7387 50.0747 42.5116V41.9778C49.6719 42.5116 49.0005 42.9886 47.9824 42.9886ZM48.1502 42.2958C49.2131 42.2958 50.0859 41.6372 50.0859 40.7059V40.1381C49.6607 40.0132 49.09 39.8882 48.3852 39.8882C47.2998 39.8882 46.6956 40.3652 46.6956 41.1034V41.1261C46.6956 41.8643 47.367 42.2958 48.1502 42.2958Z" fill="#C5C9D7"/>
<path d="M52.7052 42.4775V34.9595C52.7052 34.721 52.8954 34.5166 53.1303 34.5166C53.3765 34.5166 53.5667 34.721 53.5667 34.9595V42.4775C53.5667 42.7274 53.3877 42.9204 53.1415 42.9204C52.8954 42.9204 52.7052 42.7274 52.7052 42.4775Z" fill="#C5C9D7"/>
<path d="M58.0947 42.9999C56.3605 42.9999 55.0961 41.6144 55.0961 39.9564V39.9337C55.0961 38.2756 56.3717 36.8674 58.1171 36.8674C59.8514 36.8674 61.1269 38.2529 61.1269 39.911V39.9337C61.1269 41.5917 59.8402 42.9999 58.0947 42.9999ZM58.1171 42.2163C59.3703 42.2163 60.243 41.1942 60.243 39.9564V39.9337C60.243 38.6731 59.3143 37.6397 58.0947 37.6397C56.8416 37.6397 55.9801 38.6731 55.9801 39.911V39.9337C55.9801 41.1942 56.8975 42.2163 58.1171 42.2163Z" fill="#C5C9D7"/>
<path d="M62.5757 42.4775V37.3785C62.5757 37.14 62.7659 36.9355 63.0009 36.9355C63.247 36.9355 63.4372 37.1286 63.4372 37.3785V38.48C63.8624 37.5034 64.7016 36.9128 65.4288 36.9128C65.6862 36.9128 65.854 37.1059 65.854 37.3557C65.854 37.5942 65.6974 37.7646 65.4736 37.7986C64.3547 37.9349 63.4372 38.7867 63.4372 40.4788V42.4775C63.4372 42.716 63.2582 42.9204 63.012 42.9204C62.7659 42.9204 62.5757 42.7274 62.5757 42.4775Z" fill="#C5C9D7"/>
<path d="M66.9983 35.3002V35.1526C66.9983 34.8687 67.2221 34.6869 67.5018 34.6869C67.7927 34.6869 68.0165 34.8687 68.0165 35.1526V35.3002C68.0165 35.5728 67.7927 35.7658 67.5018 35.7658C67.2221 35.7658 66.9983 35.5728 66.9983 35.3002ZM67.0766 42.4775V37.3785C67.0766 37.14 67.2668 36.9355 67.5018 36.9355C67.748 36.9355 67.9382 37.1286 67.9382 37.3785V42.4775C67.9382 42.7274 67.7591 42.9204 67.513 42.9204C67.2668 42.9204 67.0766 42.7274 67.0766 42.4775Z" fill="#C5C9D7"/>
<path d="M70.3404 39.6043H74.0662C73.9767 38.5368 73.3725 37.6056 72.2201 37.6056C71.2131 37.6056 70.4522 38.4573 70.3404 39.6043ZM74.5361 42.1141C73.9879 42.6479 73.3389 42.9999 72.3543 42.9999C70.7655 42.9999 69.4676 41.7621 69.4676 39.945V39.9223C69.4676 38.2302 70.6424 36.8674 72.2424 36.8674C73.9543 36.8674 74.9278 38.287 74.9278 39.8428C74.9278 40.0813 74.7375 40.2517 74.525 40.2517H70.3404C70.4634 41.5236 71.3473 42.2391 72.3767 42.2391C73.0928 42.2391 73.6187 41.9551 74.0438 41.5577C74.111 41.5009 74.1893 41.4554 74.29 41.4554C74.5026 41.4554 74.6704 41.6258 74.6704 41.8302C74.6704 41.9324 74.6257 42.0346 74.5361 42.1141Z" fill="#C5C9D7"/>
<path d="M85.5303 42.9659C85.3736 42.9659 85.2841 42.9091 85.1722 42.8069L84.154 41.728C83.438 42.5116 82.5988 42.9772 81.5806 42.9772C80.1708 42.9772 79.1191 42.0801 79.1191 40.7513V40.7286C79.1191 39.6725 79.8128 38.9116 81.01 38.4346C80.4729 37.7986 80.2268 37.3103 80.2268 36.6857V36.663C80.2268 35.6182 81.0548 34.7778 82.2967 34.7778C83.3932 34.7778 84.1988 35.5841 84.1988 36.5721V36.5948C84.1988 37.6056 83.4939 38.2529 82.3527 38.6617L84.1429 40.5129C84.4338 40.07 84.7135 39.5589 84.9596 39.0024C85.0044 38.9116 85.1163 38.7639 85.3177 38.7639C85.5415 38.7639 85.7205 38.9457 85.7205 39.1728C85.7205 39.2296 85.6981 39.3091 85.6645 39.3772C85.3736 40.0018 85.0492 40.581 84.6911 41.0693L85.7764 42.1936C85.8771 42.3072 85.9443 42.3867 85.9443 42.5457C85.9443 42.7842 85.7652 42.9659 85.5303 42.9659ZM81.8603 38.1507C82.8561 37.81 83.3708 37.333 83.3708 36.6403V36.6176C83.3708 35.9816 82.9009 35.516 82.2631 35.516C81.5583 35.516 81.0771 36.0157 81.0771 36.663V36.6857C81.0771 37.1513 81.2673 37.5034 81.8603 38.1507ZM81.6478 42.2163C82.3974 42.2163 83.0464 41.8189 83.617 41.1715L81.5135 38.9911C80.4729 39.3772 80.0142 40.0245 80.0142 40.6946V40.7173C80.0142 41.569 80.6855 42.2163 81.6478 42.2163Z" fill="#C5C9D7"/>
<path d="M90.6446 42.4775V35.3229C90.6446 35.0844 90.846 34.88 91.081 34.88H91.204C91.4054 34.88 91.5285 34.9822 91.6516 35.1412L96.4068 41.2965V35.3002C96.4068 35.0617 96.597 34.8573 96.8432 34.8573C97.0781 34.8573 97.2684 35.0617 97.2684 35.3002V42.4775C97.2684 42.716 97.1005 42.8977 96.8656 42.8977H96.8208C96.6306 42.8977 96.4963 42.7842 96.3621 42.6252L91.5061 36.3223V42.4775C91.5061 42.716 91.3159 42.9204 91.0698 42.9204C90.8348 42.9204 90.6446 42.716 90.6446 42.4775Z" fill="#C5C9D7"/>
<path d="M104.183 37.3785V42.4775C104.183 42.716 104.004 42.9204 103.758 42.9204C103.523 42.9204 103.333 42.7274 103.333 42.4775V41.8416C102.942 42.4775 102.349 42.9886 101.353 42.9886C99.9541 42.9886 99.1373 42.0346 99.1373 40.6378V37.3785C99.1373 37.1286 99.3163 36.9355 99.5625 36.9355C99.7975 36.9355 99.9988 37.1286 99.9988 37.3785V40.422C99.9988 41.5122 100.581 42.1936 101.599 42.1936C102.583 42.1936 103.333 41.4554 103.333 40.3539V37.3785C103.333 37.1286 103.512 36.9355 103.758 36.9355C103.993 36.9355 104.183 37.1286 104.183 37.3785Z" fill="#C5C9D7"/>
<path d="M107.945 42.9659C107.017 42.9659 106.312 42.5003 106.312 41.3078V37.7646H105.842C105.64 37.7646 105.461 37.5829 105.461 37.3785C105.461 37.1627 105.64 36.9923 105.842 36.9923H106.312V35.6068C106.312 35.3683 106.491 35.1639 106.737 35.1639C106.972 35.1639 107.173 35.3683 107.173 35.6068V36.9923H108.673C108.885 36.9923 109.064 37.174 109.064 37.3785C109.064 37.5942 108.885 37.7646 108.673 37.7646H107.173V41.1942C107.173 41.9097 107.565 42.1709 108.147 42.1709C108.449 42.1709 108.605 42.0914 108.673 42.0914C108.874 42.0914 109.042 42.2618 109.042 42.4662C109.042 42.6252 108.941 42.7501 108.796 42.8069C108.549 42.9091 108.281 42.9659 107.945 42.9659Z" fill="#C5C9D7"/>
<path d="M110.421 42.4775V37.3785C110.421 37.14 110.612 36.9355 110.846 36.9355C111.093 36.9355 111.283 37.1286 111.283 37.3785V38.48C111.708 37.5034 112.547 36.9128 113.274 36.9128C113.532 36.9128 113.7 37.1059 113.7 37.3557C113.7 37.5942 113.543 37.7646 113.319 37.7986C112.2 37.9349 111.283 38.7867 111.283 40.4788V42.4775C111.283 42.716 111.104 42.9204 110.858 42.9204C110.612 42.9204 110.421 42.7274 110.421 42.4775Z" fill="#C5C9D7"/>
<path d="M114.844 35.3002V35.1526C114.844 34.8687 115.068 34.6869 115.347 34.6869C115.638 34.6869 115.862 34.8687 115.862 35.1526V35.3002C115.862 35.5728 115.638 35.7658 115.347 35.7658C115.068 35.7658 114.844 35.5728 114.844 35.3002ZM114.922 42.4775V37.3785C114.922 37.14 115.112 36.9355 115.347 36.9355C115.594 36.9355 115.784 37.1286 115.784 37.3785V42.4775C115.784 42.7274 115.605 42.9204 115.359 42.9204C115.112 42.9204 114.922 42.7274 114.922 42.4775Z" fill="#C5C9D7"/>
<path d="M119.607 42.9659C118.678 42.9659 117.973 42.5003 117.973 41.3078V37.7646H117.503C117.302 37.7646 117.123 37.5829 117.123 37.3785C117.123 37.1627 117.302 36.9923 117.503 36.9923H117.973V35.6068C117.973 35.3683 118.152 35.1639 118.399 35.1639C118.634 35.1639 118.835 35.3683 118.835 35.6068V36.9923H120.334C120.547 36.9923 120.726 37.174 120.726 37.3785C120.726 37.5942 120.547 37.7646 120.334 37.7646H118.835V41.1942C118.835 41.9097 119.227 42.1709 119.808 42.1709C120.11 42.1709 120.267 42.0914 120.334 42.0914C120.536 42.0914 120.703 42.2618 120.703 42.4662C120.703 42.6252 120.603 42.7501 120.457 42.8069C120.211 42.9091 119.943 42.9659 119.607 42.9659Z" fill="#C5C9D7"/>
<path d="M122.083 35.3002V35.1526C122.083 34.8687 122.307 34.6869 122.586 34.6869C122.877 34.6869 123.101 34.8687 123.101 35.1526V35.3002C123.101 35.5728 122.877 35.7658 122.586 35.7658C122.307 35.7658 122.083 35.5728 122.083 35.3002ZM122.161 42.4775V37.3785C122.161 37.14 122.352 36.9355 122.586 36.9355C122.833 36.9355 123.023 37.1286 123.023 37.3785V42.4775C123.023 42.7274 122.844 42.9204 122.598 42.9204C122.352 42.9204 122.161 42.7274 122.161 42.4775Z" fill="#C5C9D7"/>
<path d="M127.551 42.9999C125.817 42.9999 124.552 41.6144 124.552 39.9564V39.9337C124.552 38.2756 125.828 36.8674 127.573 36.8674C129.308 36.8674 130.583 38.2529 130.583 39.911V39.9337C130.583 41.5917 129.296 42.9999 127.551 42.9999ZM127.573 42.2163C128.826 42.2163 129.699 41.1942 129.699 39.9564V39.9337C129.699 38.6731 128.77 37.6397 127.551 37.6397C126.298 37.6397 125.436 38.6731 125.436 39.911V39.9337C125.436 41.1942 126.354 42.2163 127.573 42.2163Z" fill="#C5C9D7"/>
<path d="M132.032 42.4775V37.3785C132.032 37.14 132.222 36.9355 132.457 36.9355C132.703 36.9355 132.893 37.1286 132.893 37.3785V38.0144C133.274 37.3785 133.878 36.8674 134.874 36.8674C136.272 36.8674 137.089 37.8214 137.089 39.2182V42.4775C137.089 42.7274 136.899 42.9204 136.664 42.9204C136.418 42.9204 136.228 42.7274 136.228 42.4775V39.434C136.228 38.3438 135.646 37.6624 134.628 37.6624C133.632 37.6624 132.893 38.4005 132.893 39.5021V42.4775C132.893 42.7274 132.714 42.9204 132.468 42.9204C132.222 42.9204 132.032 42.7274 132.032 42.4775Z" fill="#C5C9D7"/>
<path d="M144.273 42.4662V35.7431H142.001C141.777 35.7431 141.587 35.5614 141.587 35.3343C141.587 35.1071 141.777 34.9141 142.001 34.9141H147.439C147.663 34.9141 147.853 35.1071 147.853 35.3343C147.853 35.5614 147.663 35.7431 147.439 35.7431H145.168V42.4662C145.168 42.716 144.966 42.9204 144.72 42.9204C144.474 42.9204 144.273 42.716 144.273 42.4662Z" fill="#C5C9D7"/>
<path d="M148.206 42.4775V37.3785C148.206 37.14 148.396 36.9355 148.631 36.9355C148.878 36.9355 149.068 37.1286 149.068 37.3785V38.48C149.493 37.5034 150.332 36.9128 151.059 36.9128C151.317 36.9128 151.484 37.1059 151.484 37.3557C151.484 37.5942 151.328 37.7646 151.104 37.7986C149.985 37.9349 149.068 38.7867 149.068 40.4788V42.4775C149.068 42.716 148.889 42.9204 148.643 42.9204C148.396 42.9204 148.206 42.7274 148.206 42.4775Z" fill="#C5C9D7"/>
<path d="M154.068 42.9886C152.994 42.9886 151.908 42.364 151.908 41.1602V41.1375C151.908 39.8996 152.915 39.2409 154.381 39.2409C155.12 39.2409 155.645 39.3431 156.16 39.4908V39.2863C156.16 38.2302 155.522 37.6851 154.437 37.6851C153.855 37.6851 153.363 37.8214 152.938 38.0144C152.882 38.0371 152.826 38.0485 152.781 38.0485C152.58 38.0485 152.401 37.8781 152.401 37.6737C152.401 37.492 152.524 37.3557 152.636 37.3103C153.206 37.0605 153.788 36.9128 154.527 36.9128C155.343 36.9128 155.97 37.1286 156.395 37.5602C156.787 37.9576 156.988 38.5255 156.988 39.275V42.4889C156.988 42.7387 156.809 42.9204 156.574 42.9204C156.328 42.9204 156.16 42.7387 156.16 42.5116V41.9778C155.757 42.5116 155.086 42.9886 154.068 42.9886ZM154.236 42.2958C155.299 42.2958 156.171 41.6372 156.171 40.7059V40.1381C155.746 40.0132 155.175 39.8882 154.471 39.8882C153.385 39.8882 152.781 40.3652 152.781 41.1034V41.1261C152.781 41.8643 153.452 42.2958 154.236 42.2958Z" fill="#C5C9D7"/>
<path d="M161.319 42.9999C159.63 42.9999 158.354 41.6031 158.354 39.9564V39.9337C158.354 38.2756 159.63 36.8674 161.319 36.8674C162.282 36.8674 162.93 37.2422 163.445 37.7191C163.512 37.7759 163.579 37.8895 163.579 38.0258C163.579 38.2643 163.389 38.446 163.165 38.446C163.054 38.446 162.953 38.4005 162.886 38.3438C162.472 37.9576 162.002 37.6397 161.308 37.6397C160.133 37.6397 159.238 38.6504 159.238 39.911V39.9337C159.238 41.2056 160.156 42.2163 161.364 42.2163C162.024 42.2163 162.55 41.9097 162.975 41.5009C163.031 41.4441 163.109 41.3873 163.221 41.3873C163.434 41.3873 163.613 41.5804 163.613 41.7848C163.613 41.887 163.568 41.9892 163.501 42.0573C162.953 42.6138 162.293 42.9999 161.319 42.9999Z" fill="#C5C9D7"/>
<path d="M164.992 42.4775V34.9595C164.992 34.721 165.183 34.5166 165.418 34.5166C165.664 34.5166 165.854 34.721 165.854 34.9595V40.3425L168.987 37.1059C169.088 36.9923 169.188 36.9355 169.322 36.9355C169.557 36.9355 169.714 37.1286 169.714 37.3444C169.714 37.4807 169.658 37.5715 169.546 37.6851L167.655 39.5703L169.725 42.2163C169.804 42.3185 169.837 42.398 169.837 42.5116C169.837 42.7501 169.658 42.9204 169.423 42.9204C169.267 42.9204 169.166 42.8637 169.054 42.716L167.051 40.1494L165.854 41.3532V42.4775C165.854 42.7274 165.675 42.9204 165.429 42.9204C165.183 42.9204 164.992 42.7274 164.992 42.4775Z" fill="#C5C9D7"/>
<path d="M171.514 39.6043H175.24C175.15 38.5368 174.546 37.6056 173.394 37.6056C172.387 37.6056 171.626 38.4573 171.514 39.6043ZM175.71 42.1141C175.162 42.6479 174.513 42.9999 173.528 42.9999C171.939 42.9999 170.641 41.7621 170.641 39.945V39.9223C170.641 38.2302 171.816 36.8674 173.416 36.8674C175.128 36.8674 176.101 38.287 176.101 39.8428C176.101 40.0813 175.911 40.2517 175.699 40.2517H171.514C171.637 41.5236 172.521 42.2391 173.55 42.2391C174.267 42.2391 174.792 41.9551 175.218 41.5577C175.285 41.5009 175.363 41.4554 175.464 41.4554C175.676 41.4554 175.844 41.6258 175.844 41.8302C175.844 41.9324 175.799 42.0346 175.71 42.1141Z" fill="#C5C9D7"/>
<path d="M177.509 42.4775V37.3785C177.509 37.14 177.699 36.9355 177.934 36.9355C178.18 36.9355 178.371 37.1286 178.371 37.3785V38.48C178.796 37.5034 179.635 36.9128 180.362 36.9128C180.619 36.9128 180.787 37.1059 180.787 37.3557C180.787 37.5942 180.631 37.7646 180.407 37.7986C179.288 37.9349 178.371 38.7867 178.371 40.4788V42.4775C178.371 42.716 178.192 42.9204 177.945 42.9204C177.699 42.9204 177.509 42.7274 177.509 42.4775Z" fill="#C5C9D7"/>
<path d="M143.458 29.0006C143.011 29.0006 142.623 28.8454 142.293 28.5348C141.963 28.2243 141.798 27.8589 141.798 27.4387V25.9042C141.798 25.4841 141.963 25.1187 142.293 24.8081C142.623 24.4976 143.011 24.3423 143.458 24.3423H144.797C145.243 24.3423 145.632 24.4976 145.961 24.8081C146.291 25.1187 146.456 25.4841 146.456 25.9042V27.4387C146.456 27.8589 146.291 28.2243 145.961 28.5348C145.632 28.8454 145.243 29.0006 144.797 29.0006H143.458Z" fill="white"/>
<path d="M162.361 18.9761C158.761 18.9761 156.962 20.0894 156.962 22.3159C156.962 23.1255 157.188 23.7833 157.641 24.2894C158.12 24.7954 158.724 25.0484 159.454 25.0484C160.889 25.0484 162.047 24.6056 162.928 23.7201C163.809 22.8092 164.249 21.5695 164.249 20.0008V19.3177C164.249 19.09 164.136 18.9761 163.909 18.9761H162.361ZM158.094 28.8436C156.383 28.8436 154.96 28.2869 153.827 27.1737C152.72 26.0351 152.166 24.5677 152.166 22.7713C152.166 20.5701 152.997 18.8622 154.658 17.6478C156.345 16.4333 158.912 15.8261 162.361 15.8261H163.909C164.136 15.8261 164.249 15.7123 164.249 15.4845V15.1809C164.249 14.0171 163.972 13.2074 163.418 12.752C162.865 12.2713 161.883 12.0309 160.473 12.0309C159.013 12.0309 157.226 12.2966 155.111 12.8279C154.658 12.9544 154.243 12.8785 153.865 12.6002C153.488 12.2966 153.299 11.9044 153.299 11.4237C153.299 10.8418 153.475 10.3231 153.827 9.86768C154.18 9.38696 154.633 9.09599 155.187 8.99479C157.1 8.56467 158.9 8.34961 160.586 8.34961C163.809 8.34961 166.062 8.93154 167.346 10.0954C168.629 11.2592 169.271 13.296 169.271 16.2056V26.3008C169.271 26.8827 169.057 27.3887 168.629 27.8189C168.227 28.249 167.736 28.464 167.157 28.464H166.741C166.137 28.464 165.621 28.2616 165.193 27.8568C164.765 27.4267 164.539 26.908 164.514 26.3008V25.7695C164.514 25.7442 164.501 25.7315 164.476 25.7315C164.425 25.7315 164.4 25.7442 164.4 25.7695C162.865 27.8189 160.763 28.8436 158.094 28.8436Z" fill="white"/>
<path d="M177.561 28.464C176.982 28.464 176.479 28.249 176.051 27.8189C175.623 27.3887 175.409 26.8827 175.409 26.3008V10.8924C175.409 10.3105 175.623 9.80443 176.051 9.37431C176.479 8.94419 176.982 8.72913 177.561 8.72913H178.543C179.122 8.72913 179.626 8.94419 180.054 9.37431C180.481 9.80443 180.695 10.3105 180.695 10.8924V26.3008C180.695 26.8827 180.481 27.3887 180.054 27.8189C179.626 28.249 179.122 28.464 178.543 28.464H177.561Z" fill="white"/>
<path d="M176.051 3.90903C176.479 4.33915 176.982 4.55421 177.561 4.55421H178.543C179.122 4.55421 179.625 4.33915 180.053 3.90903C180.481 3.47891 180.695 2.97289 180.695 2.39096V2.16325C180.695 1.58132 180.481 1.0753 180.053 0.645181C179.625 0.21506 179.122 0 178.543 0H177.561C176.982 0 176.479 0.21506 176.051 0.645181C175.623 1.0753 175.409 1.58132 175.409 2.16325V2.39096C175.409 2.97289 175.623 3.47891 176.051 3.90903Z" fill="#C8A0FF"/>
<path d="M42.2088 26.4837C42.6368 26.9139 43.1402 27.1289 43.7192 27.1289H44.701C45.28 27.1289 45.7834 26.9139 46.2114 26.4837C46.6393 26.0536 46.8533 25.5476 46.8533 24.9657V24.738C46.8533 24.156 46.6393 23.65 46.2114 23.2199C45.7834 22.7898 45.28 22.5747 44.701 22.5747H43.7192C43.1402 22.5747 42.6368 22.7898 42.2088 23.2199C41.7809 23.65 41.5669 24.156 41.5669 24.738V24.9657C41.5669 25.5476 41.7809 26.0536 42.2088 26.4837Z" fill="#FF9B61"/>
</svg>
